<?xml version="1.0" encoding="utf-8"?>
<!-- Generator: Adobe Illustrator 23.1.0, SVG Export Plug-In . SVG Version: 6.00 Build 0)  -->
<svg version="1.1" id="Layer_1" xmlns="http://www.w3.org/2000/svg" xmlns:xlink="http://www.w3.org/1999/xlink" x="0px" y="0px"
	 viewBox="0 0 24 24" style="enable-background:new 0 0 24 24;" xml:space="preserve">
<style type="text/css">
	.st0{fill:#FFFFFF;}
</style>
	<g>
	<g>
		<path className="st0" d="M17,3.5C17,3.2,16.8,3,16.5,3H14c-2.6-0.1-4.9,1.9-5,4.5v2.7H6.5c-0.3,0-0.5,0.2-0.5,0.5v2.6
			c0,0.3,0.2,0.5,0.5,0.5H9v6.7C9,20.8,9.2,21,9.5,21h3c0.3,0,0.5-0.2,0.5-0.5v-6.7h2.6c0.2,0,0.4-0.1,0.5-0.4l0.7-2.6
			c0.1-0.3-0.1-0.5-0.4-0.6c0,0-0.1,0-0.1,0H13V7.5c0.1-0.5,0.5-0.9,1-0.9h2.5c0.3,0,0.5-0.2,0.5-0.5V3.5z"/>
	</g>
</g>
</svg>
