<?xml version="1.0" encoding="utf-8"?>
<!-- Generator: Adobe Illustrator 23.1.0, SVG Export Plug-In . SVG Version: 6.00 Build 0)  -->
<svg version="1.1" id="Layer_1" xmlns="http://www.w3.org/2000/svg" xmlns:xlink="http://www.w3.org/1999/xlink" x="0px" y="0px"
     viewBox="0 0 24 24" style="enable-background:new 0 0 24 24;" xml:space="preserve">
<style type="text/css">
	.st0{fill:#FFFFFF;}
</style>
    <g>
	<g>
		<path className="st0" d="M17.5,14c-0.6,2.1-2.4,3.6-4.5,3.9c-3.4,0.5-6.5-1.8-7-5.2c0-0.1,0-0.2,0-0.2C5.7,9.2,8.2,6.3,11.5,6
			c0.2,0,0.3,0,0.5,0c0.8,0,1.5,0.2,2.3,0.4c0.2,0.1,0.5,0,0.6-0.2l1.4-2.7c0.1-0.3,0-0.6-0.2-0.7c0,0,0,0,0,0c-5-2.3-11,0-13.2,5
			C2.3,9.3,2,10.8,2,12.3c0.2,5.2,4.4,9.4,9.6,9.7c5.5,0.2,10.1-4,10.4-9.5v-2c0-0.3-0.2-0.5-0.5-0.5h-9c-0.3,0-0.5,0.2-0.5,0.5v3
			c0,0.3,0.2,0.5,0.5,0.5L17.5,14"/>
	</g>
</g>
</svg>
