<svg xmlns="http://www.w3.org/2000/svg" width="20.237" height="21.803" viewBox="0 0 20.237 21.803"><g transform="translate(-29.318 -11.762)"><path d="M213.623,91.851l2.486-8.755a1.014,1.014,0,0,0-.7-1.251l-8.4-2.386-1.633,5.637.42.42,2.533-2.531a1.149,1.149,0,0,1,1.941,1.028,1.165,1.165,0,0,1,.134-.008,1.149,1.149,0,0,1,.887,1.881,1.149,1.149,0,0,1,.74,1.881,1.149,1.149,0,0,1,.673,1.954L210.428,92l1.943.552A1.014,1.014,0,0,0,213.623,91.851Z" transform="translate(-168.2 -64.674)" fill="#183656"/><path d="M102.714,166.707a.7.7,0,0,0-1.2-.5l-.533.533-.533.533-.018.015a.223.223,0,0,1-.3-.33l1.638-1.637a.7.7,0,0,0-.994-.994l-1.637,1.638a.227.227,0,0,1-.316,0,.223.223,0,0,1,0-.316l2.2-2.2a.7.7,0,0,0-.994-.994l-2.2,2.2a.227.227,0,0,1-.316,0,.223.223,0,0,1,0-.316l2.2-2.2h0l.046-.046a.7.7,0,0,0-.994-.994c-1.12,1.119-3,3-3.028,3.024a2.312,2.312,0,0,1-2.017.546.223.223,0,1,1,.088-.437,1.865,1.865,0,0,0,1.625-.435l.167-.166-1-1a1.015,1.015,0,0,0-1.434,0l-1.3,1.3a1.365,1.365,0,0,0-.4.972v.692a4.265,4.265,0,0,1-1.1,2.876l4.943,4.943,2.9-2.022a5.11,5.11,0,0,0,.688-.577l3.616-3.616A.7.7,0,0,0,102.714,166.707Z" transform="translate(-58.318 -142.475)" fill="#183656"/><path d="M0,0H2.182V8.86H0Z" transform="translate(29.626 27.301) rotate(-45)" fill="#183656"/><path d="M150.124,74.3l.216.216,1.563-5.4-1.116-.317a1.014,1.014,0,0,0-1.251.7l-1.39,4.722A1.462,1.462,0,0,1,150.124,74.3Z" transform="translate(-113.523 -54.457)" fill="#183656"/><path d="M155.385,40.615a.223.223,0,0,0,.215-.162,1.014,1.014,0,0,1,1.251-.7.223.223,0,1,0,.122-.429,1.461,1.461,0,0,0-1.8,1.005.223.223,0,0,0,.215.284Z" transform="translate(-120.226 -26.28)" fill="#183656"/><path d="M128.319,14.068a.223.223,0,0,0,.276-.154,2.346,2.346,0,0,1,2.9-1.616.223.223,0,1,0,.122-.429,2.792,2.792,0,0,0-3.449,1.923A.223.223,0,0,0,128.319,14.068Z" transform="translate(-94.426 0)" fill="#183656"/><path d="M372.678,378.495a1.014,1.014,0,0,1-1.251.7.223.223,0,1,0-.122.429,1.458,1.458,0,0,0,1.8-1.005.223.223,0,1,0-.429-.122Z" transform="translate(-326.566 -350.208)" fill="#183656"/><path d="M360.092,379.292a.223.223,0,0,0-.276.154,2.713,2.713,0,0,1-3.352,1.869.223.223,0,0,0-.122.429,3.154,3.154,0,0,0,3.9-2.176A.223.223,0,0,0,360.092,379.292Z" transform="translate(-312.272 -351.116)" fill="#183656"/><path d="M426.78,290.171a1.491,1.491,0,0,1-.938-.939.223.223,0,0,0-.424,0,1.491,1.491,0,0,1-.938.939.223.223,0,0,0,0,.423,1.491,1.491,0,0,1,.938.939.223.223,0,0,0,.424,0,1.491,1.491,0,0,1,.938-.939.223.223,0,0,0,0-.423Z" transform="translate(-377.377 -264.938)" fill="#183656"/><ellipse cx="0.477" cy="0.477" rx="0.477" ry="0.477" transform="translate(32.029 13.382)" fill="#183656"/><path d="M30.344,78.084a.223.223,0,0,0,.423,0,1.388,1.388,0,0,1,.873-.874.223.223,0,0,0,0-.423,1.388,1.388,0,0,1-.873-.874.223.223,0,0,0-.423,0,1.388,1.388,0,0,1-.873.874.223.223,0,0,0,0,.423A1.388,1.388,0,0,1,30.344,78.084Z" transform="translate(0 -61.141)" fill="#183656"/></g></svg>