<svg xmlns="http://www.w3.org/2000/svg" width="23.692" height="21.347" viewBox="0 0 23.692 21.347"><g transform="translate(0 -25.352)"><path d="M264.365,457h-6.659a.694.694,0,0,0,0,1.387h6.659a.694.694,0,1,0,0-1.387Z" transform="translate(-245.128 -411.689)" fill="#e9c200"/><path d="M3.084,399.962.207,402.8a.694.694,0,0,0,.487,1.187H5.18a.693.693,0,0,0,.49-.2l.618-.618Z" transform="translate(0 -357.287)" fill="#e9c200"/><path d="M87.092,280.057a3.327,3.327,0,0,0-.812,3.082,2.087,2.087,0,0,1-.143,1.4l3.371,3.371a2.087,2.087,0,0,1,1.4-.143,3.325,3.325,0,0,0,3.082-.812Z" transform="translate(-82.154 -242.927)" fill="#182e45"/><path d="M145.643,28.35l-2-2.165a2.587,2.587,0,0,0-3.621-.179l-11.441,10.17,6.851,6.851,10.218-11.176a2.588,2.588,0,0,0-.008-3.5Z" transform="translate(-122.637 0)" fill="#182e45"/></g></svg>