<svg xmlns="http://www.w3.org/2000/svg" width="21.299" height="21.325" viewBox="0 0 21.299 21.325"><g transform="translate(-0.502 0)"><path d="M54.37,152.711l-4.816,2.311-.167.079,1.906,9.8,6.536-7.972Zm0,0" transform="translate(-47.147 -147.284)" fill="#707070"/><path d="M312.777,156.937l6.536,7.972,1.906-9.8-4.983-2.39Zm0,0" transform="translate(-301.177 -147.291)" fill="#707070"/><path d="M162.213,292.615a16.214,16.214,0,0,1,5.072.755l-5.072-6.186-5.072,6.184A16.219,16.219,0,0,1,162.213,292.615Zm0,0" transform="translate(-151.072 -276.977)" fill="#707070"/><path d="M123.354,462.488c0-1.374-3.023-2.488-6.753-2.488s-6.753,1.114-6.753,2.488,3.023,2.488,6.753,2.488S123.354,463.862,123.354,462.488Zm0,0" transform="translate(-105.46 -443.651)" fill="#707070"/><path d="M7.032,6.061A.353.353,0,0,0,7.2,5.588a1.773,1.773,0,0,0-1.685-1L4.534,2.542A2.132,2.132,0,0,0,.688,4.383L1.674,6.44a1.773,1.773,0,0,0-.421,1.145,1.75,1.75,0,0,0,.178.768.355.355,0,0,0,.32.2A.332.332,0,0,0,1.9,8.52Zm0,0" transform="translate(0 -1.33)" fill="#707070"/><path d="M415.3.209a2.13,2.13,0,0,0-2.843,1l-.981,2.042a1.773,1.773,0,0,0-1.685,1,.353.353,0,0,0,.167.473l5.129,2.459a.332.332,0,0,0,.153.036.355.355,0,0,0,.32-.2,1.75,1.75,0,0,0,.178-.768,1.774,1.774,0,0,0-.421-1.145l.986-2.057a2.138,2.138,0,0,0-1-2.843Zm0,0" transform="translate(-394.711 0)" fill="#707070"/></g></svg>