<svg xmlns="http://www.w3.org/2000/svg" width="21.301" height="21.301" viewBox="0 0 21.301 21.301"><g transform="translate(0)"><path d="M12.732,109.861h-.57L7.3,94.146a.624.624,0,0,0-.6-.44h0a.624.624,0,0,0-.6.441L1.3,109.861H.624a.624.624,0,1,0,0,1.248H3.3a.624.624,0,1,0,0-1.248H2.6l.77-2.517H7.439l.773,2.517H7.528a.624.624,0,1,0,0,1.248h5.2a.624.624,0,1,0,0-1.248ZM3.754,106.1,5.4,100.71,7.056,106.1Zm0,0" transform="translate(0 -89.808)" fill="#182e45"/><path d="M340.882,293.073h-.92v-5.7a2.5,2.5,0,0,0-2.5-2.5h-.4a2.5,2.5,0,0,0-2.5,2.5v.164a.624.624,0,0,0,1.248,0v-.164a1.251,1.251,0,0,1,1.248-1.251h.4a1.25,1.25,0,0,1,1.248,1.251v.488l-3,1.176a2.512,2.512,0,0,0-1.605,2.354v.255a2.524,2.524,0,0,0,4.31,1.787l.3-.3v.1a1.094,1.094,0,0,0,1.092,1.093h1.076a.624.624,0,0,0,0-1.248Zm-3.35-.524a1.276,1.276,0,0,1-2.179-.905v-.255a1.272,1.272,0,0,1,.812-1.192l2.549-1v2.166Zm0,0" transform="translate(-320.206 -273.02)" fill="#182e45"/><path d="M20.677,0a.624.624,0,0,0-.624.624v.418H1.248V.624A.624.624,0,1,0,0,.624V2.707a.624.624,0,1,0,1.248,0V2.29h18.8v.418a.624.624,0,1,0,1.248,0V.624A.624.624,0,0,0,20.677,0Zm0,0" transform="translate(0)" fill="#e75555"/></g></svg>