<svg xmlns="http://www.w3.org/2000/svg" width="20.758" height="17.251" viewBox="0 0 20.758 17.251"><g transform="translate(0 -43.255)"><g transform="translate(0 43.255)"><path d="M5.786,53.387,1.975,49.024l3.811-4.363a.848.848,0,1,0-1.278-1.116L.21,48.466a.848.848,0,0,0,0,1.116l4.3,4.921a.848.848,0,0,0,1.278-1.117Z" transform="translate(0 -43.255)" fill="#707070"/></g><g transform="translate(0 48.176)"><path d="M14.593,164.619H.848a.848.848,0,1,0,0,1.7H14.593a4.468,4.468,0,1,1,0,8.937H1.98a.848.848,0,0,0,0,1.7H14.593a6.165,6.165,0,1,0,0-12.33Z" transform="translate(0 -164.619)" fill="#707070"/></g></g></svg>