<svg xmlns="http://www.w3.org/2000/svg" width="20.758" height="17.251" viewBox="0 0 20.758 17.251"><g transform="translate(14.762 0)"><path d="M.209,53.387l3.811-4.363L.209,44.662a.848.848,0,1,1,1.278-1.116l4.3,4.921a.848.848,0,0,1,0,1.116L1.487,54.5A.848.848,0,0,1,.209,53.387Z" transform="translate(0 -43.255)" fill="#707070"/></g><g transform="translate(0 4.92)"><path d="M6.165,164.619H19.91a.848.848,0,1,1,0,1.7H6.165a4.468,4.468,0,1,0,0,8.937H18.778a.848.848,0,0,1,0,1.7H6.165a6.165,6.165,0,1,1,0-12.33Z" transform="translate(0 -164.619)" fill="#707070"/></g></svg>